<svg width="17" height="18" viewBox="0 0 17 18" fill="none" xmlns="http://www.w3.org/2000/svg">
<path d="M4.22012 5.15039C4.26328 5.42109 4.48574 5.625 4.75137 5.625H5.29922C5.62461 5.625 5.88359 5.32617 5.84043 4.99219C5.71426 4.00078 5.2959 3.08672 4.6252 2.36602C4.14707 1.84922 3.8416 1.19531 3.74863 0.485156C3.71211 0.207422 3.48633 0 3.21406 0H2.66953C2.34414 0 2.0918 0.298828 2.12832 0.632812C2.25781 1.7543 2.72598 2.78789 3.47637 3.6C3.8748 4.02891 4.13047 4.5668 4.22012 5.15039ZM7.93887 5.15039C7.98203 5.42109 8.20449 5.625 8.47012 5.625H9.01797C9.34336 5.625 9.60234 5.32617 9.55918 4.99219C9.43301 4.00078 9.01465 3.08672 8.34395 2.36602C7.86582 1.84922 7.56035 1.19531 7.46738 0.485156C7.43086 0.207422 7.20508 0 6.93281 0H6.38828C6.06289 0 5.80723 0.298828 5.84707 0.632812C5.97656 1.7543 6.44473 2.78789 7.19512 3.6C7.59355 4.02891 7.84922 4.5668 7.93887 5.15039ZM13.2812 6.75H1.0625C0.474805 6.75 0 7.25273 0 7.875V14.625C0 16.4883 1.42773 18 3.1875 18H9.5625C11.3223 18 12.75 16.4883 12.75 14.625H13.2812C15.3332 14.625 17 12.8602 17 10.6875C17 8.51484 15.3332 6.75 13.2812 6.75ZM13.2812 12.375H12.75V9H13.2812C14.1611 9 14.875 9.75586 14.875 10.6875C14.875 11.6191 14.1611 12.375 13.2812 12.375Z" fill="black"/>
</svg>
