<svg width="22" height="19" viewBox="0 0 22 19" fill="none" xmlns="http://www.w3.org/2000/svg">
<g filter="url(#filter0_i_1_15767)">
<path d="M17.3871 2.03948C20.1815 3.73591 22 6.51051 22 9.65078C22 14.8079 17.0855 18.9887 11.0222 19C4.96775 19.0113 0.00887906 14.8155 8.09548e-06 9.66586C-0.00442739 6.52559 1.81412 3.74345 4.60404 2.04325C5.12299 1.73036 5.84597 1.8623 6.15646 2.33353L6.85726 3.39285C7.11896 3.78869 6.99476 4.29007 6.56452 4.5615C4.7238 5.72261 3.54839 7.56229 3.54839 9.64701C3.54396 13.1266 6.85283 15.9841 11 15.9841C15.0629 15.9841 18.4782 13.1869 18.4516 9.60931C18.4383 7.65654 17.3561 5.77162 15.4311 4.55773C15.0008 4.2863 14.8811 3.78492 15.1427 3.39285L15.8436 2.33353C16.154 1.86607 16.8726 1.72659 17.3871 2.03948ZM12.7742 9.95237V0.904761C12.7742 0.403372 12.2996 0 11.7097 0H10.2903C9.70041 0 9.22581 0.403372 9.22581 0.904761V9.95237C9.22581 10.4538 9.70041 10.8571 10.2903 10.8571H11.7097C12.2996 10.8571 12.7742 10.4538 12.7742 9.95237Z" fill="#CC792D"/>
</g>
<path d="M17.1276 2.46689L17.1273 2.46669C16.8184 2.27885 16.4075 2.38868 16.2603 2.60982C16.2602 2.60993 16.2601 2.61005 16.2601 2.61017L15.5597 3.66873L15.5586 3.67044C15.4689 3.80479 15.4804 3.9977 15.6978 4.13485C17.7493 5.42855 18.9369 7.46275 18.9516 9.60559C18.9516 9.6057 18.9516 9.6058 18.9516 9.60591L18.4516 9.60931C18.4782 13.1869 15.0629 15.9841 11 15.9841C6.85283 15.9841 3.54396 13.1266 3.54839 9.64701L17.1276 2.46689ZM17.1276 2.46689C19.801 4.08988 21.5 6.71604 21.5 9.65078C21.5 14.459 16.8881 18.489 11.0212 18.5C5.16359 18.5109 0.508376 14.4653 0.500008 9.66515L17.1276 2.46689ZM4.86311 2.4709C2.19459 4.09756 0.495923 6.73076 0.500007 9.665L4.86311 2.4709ZM4.86311 2.4709C5.18389 2.27816 5.59583 2.39143 5.73894 2.60862L5.73945 2.6094L6.44017 3.6686C6.4402 3.66864 6.44023 3.66868 6.44026 3.66873C6.53034 3.80511 6.51764 3.99989 6.29774 4.13862L4.86311 2.4709ZM12.2742 0.904761V9.95237C12.2742 10.1045 12.1028 10.3571 11.7097 10.3571H10.2903C9.89723 10.3571 9.72581 10.1045 9.72581 9.95237V0.904761C9.72581 0.752662 9.89723 0.5 10.2903 0.5H11.7097C12.1028 0.5 12.2742 0.752661 12.2742 0.904761Z" stroke="#CC792D"/>
<defs>
<filter id="filter0_i_1_15767" x="0" y="0" width="22" height="23" filterUnits="userSpaceOnUse" color-interpolation-filters="sRGB">
<feFlood flood-opacity="0" result="BackgroundImageFix"/>
<feBlend mode="normal" in="SourceGraphic" in2="BackgroundImageFix" result="shape"/>
<feColorMatrix in="SourceAlpha" type="matrix" values="0 0 0 0 0 0 0 0 0 0 0 0 0 0 0 0 0 0 127 0" result="hardAlpha"/>
<feOffset dy="4"/>
<feGaussianBlur stdDeviation="2"/>
<feComposite in2="hardAlpha" operator="arithmetic" k2="-1" k3="1"/>
<feColorMatrix type="matrix" values="0 0 0 0 0 0 0 0 0 0 0 0 0 0 0 0 0 0 0.25 0"/>
<feBlend mode="normal" in2="shape" result="effect1_innerShadow_1_15767"/>
</filter>
</defs>
</svg>
