<svg width="17" height="20" viewBox="0 0 17 20" fill="none" xmlns="http://www.w3.org/2000/svg">
<path d="M15.5869 11.7703L16.9821 3.64527C17.0828 3.05863 16.7459 2.5 16.2914 2.5H4.69885L4.42832 0.749609C4.36091 0.31332 4.07085 0 3.73436 0H0.708333C0.317127 0 0 0.419727 0 0.9375V1.5625C0 2.08027 0.317127 2.5 0.708333 2.5H2.77085L4.84415 15.9154C4.34813 16.293 4.01389 17.0009 4.01389 17.8125C4.01389 19.0206 4.75386 20 5.66667 20C6.57947 20 7.31945 19.0206 7.31945 17.8125C7.31945 17.2002 7.12917 16.6471 6.8229 16.25H13.0104C12.7042 16.6471 12.5139 17.2002 12.5139 17.8125C12.5139 19.0206 13.2539 20 14.1667 20C15.0795 20 15.8194 19.0206 15.8194 17.8125C15.8194 16.9464 15.4391 16.198 14.8874 15.8436L15.0503 14.8953C15.151 14.3086 14.8141 13.75 14.3595 13.75H6.43748L6.24431 12.5H14.8962C15.2269 12.5 15.5136 12.1971 15.5869 11.7703Z" fill="black"/>
</svg>
