<svg width="25" height="23" viewBox="0 0 25 23" fill="none" xmlns="http://www.w3.org/2000/svg">
<path d="M12.7691 12.053C13.5503 12.27 14.2752 12.6345 14.9175 13.125L21.9271 10.7899C22.2917 10.6684 22.487 10.2734 22.3654 9.91319L19.7439 2.04861C19.6224 1.68403 19.2274 1.48872 18.8672 1.61024L16.2153 2.49566L17.6519 6.8099L15.0174 7.68229L13.5807 3.36806L10.9071 4.25781C10.5425 4.37934 10.3472 4.77431 10.4687 5.13455L12.7691 12.053ZM24.9653 14.1667L24.5226 12.8472C24.401 12.4826 24.0061 12.2873 23.6458 12.4089L14.3793 15.4991C13.6328 14.5443 12.487 13.9193 11.1892 13.8932L6.875 0.950521C6.68403 0.381944 6.15451 0 5.55556 0H0.694444C0.3125 0 0 0.3125 0 0.694444V2.08333C0 2.46528 0.3125 2.77778 0.694444 2.77778H4.55295L8.55469 14.7873C7.42188 15.6727 6.74479 17.1137 6.99219 18.7153C7.25694 20.4253 8.63715 21.8533 10.3472 22.1528C12.9601 22.6172 15.2214 20.6424 15.2691 18.1337L24.5269 15.0434C24.8872 14.9219 25.0868 14.5312 24.9653 14.1667ZM11.1111 20.1389C9.96094 20.1389 9.02778 19.2057 9.02778 18.0556C9.02778 16.9054 9.96094 15.9722 11.1111 15.9722C12.2613 15.9722 13.1944 16.9054 13.1944 18.0556C13.1944 19.2057 12.2613 20.1389 11.1111 20.1389Z" fill="#CC792D"/>
</svg>
