<svg width="20" height="26" viewBox="0 0 20 26" fill="none" xmlns="http://www.w3.org/2000/svg">
<path d="M17.8571 11.3968H16.7857V7.9075C16.7857 3.84637 13.7411 0.54126 10 0.54126C6.25893 0.54126 3.21429 3.84637 3.21429 7.9075V11.3968H2.14286C0.959821 11.3968 0 12.4387 0 13.7229V23.0277C0 24.3119 0.959821 25.3539 2.14286 25.3539H17.8571C19.0402 25.3539 20 24.3119 20 23.0277V13.7229C20 12.4387 19.0402 11.3968 17.8571 11.3968ZM13.2143 11.3968H6.78571V7.9075C6.78571 5.98355 8.22768 4.41823 10 4.41823C11.7723 4.41823 13.2143 5.98355 13.2143 7.9075V11.3968Z" fill="black"/>
</svg>
