<svg width="20" height="26" viewBox="0 0 20 26" fill="none" xmlns="http://www.w3.org/2000/svg">
<path d="M10 13.2923C13.1562 13.2923 15.7143 10.5155 15.7143 7.0892C15.7143 3.66293 13.1562 0.886047 10 0.886047C6.84375 0.886047 4.28571 3.66293 4.28571 7.0892C4.28571 10.5155 6.84375 13.2923 10 13.2923ZM14 14.8431H13.2545C12.2634 15.3374 11.1607 15.6185 10 15.6185C8.83929 15.6185 7.74107 15.3374 6.74554 14.8431H6C2.6875 14.8431 0 17.7605 0 21.3564V23.3725C0 24.6567 0.959821 25.6986 2.14286 25.6986H17.8571C19.0402 25.6986 20 24.6567 20 23.3725V21.3564C20 17.7605 17.3125 14.8431 14 14.8431Z" fill="black"/>
</svg>
