<svg width="25" height="25" viewBox="0 0 25 25" fill="none" xmlns="http://www.w3.org/2000/svg">
<g filter="url(#filter0_i_1_15768)">
<path d="M12.1094 24.2188C5.41992 24.2188 0 18.7988 0 12.1094C0 5.41992 5.41992 0 12.1094 0C18.7988 0 24.2188 5.41992 24.2188 12.1094C24.2188 18.7988 18.7988 24.2188 12.1094 24.2188ZM17.7734 9.96094H12.1094V6.49902C12.1094 5.97656 11.4746 5.71289 11.1084 6.08398L5.52734 11.6943C5.29785 11.9238 5.29785 12.29 5.52734 12.5195L11.1084 18.1299C11.4795 18.501 12.1094 18.2373 12.1094 17.7148V14.2578H17.7734C18.0957 14.2578 18.3594 13.9941 18.3594 13.6719V10.5469C18.3594 10.2246 18.0957 9.96094 17.7734 9.96094Z" fill="#CC792D"/>
</g>
<path d="M10.7539 18.4825L10.7548 18.4834C11.443 19.1716 12.6094 18.6799 12.6094 17.7148V14.7578H17.7734C18.3718 14.7578 18.8594 14.2703 18.8594 13.6719V10.5469C18.8594 9.94847 18.3718 9.46094 17.7734 9.46094H12.6094V6.49902C12.6094 5.53676 11.4384 5.03896 10.7533 5.73201C10.753 5.73226 10.7528 5.73252 10.7525 5.73278L5.17379 11.3408C5.17361 11.341 5.17343 11.3411 5.17325 11.3413C4.74922 11.7659 4.74922 12.4479 5.17325 12.8725C5.17343 12.8727 5.17361 12.8729 5.17379 12.8731L10.7539 18.4825ZM12.1094 23.7188C5.69606 23.7188 0.5 18.5227 0.5 12.1094C0.5 5.69606 5.69606 0.5 12.1094 0.5C18.5227 0.5 23.7188 5.69606 23.7188 12.1094C23.7188 18.5227 18.5227 23.7188 12.1094 23.7188Z" stroke="#CC792D"/>
<defs>
<filter id="filter0_i_1_15768" x="0" y="0" width="24.2188" height="28.2188" filterUnits="userSpaceOnUse" color-interpolation-filters="sRGB">
<feFlood flood-opacity="0" result="BackgroundImageFix"/>
<feBlend mode="normal" in="SourceGraphic" in2="BackgroundImageFix" result="shape"/>
<feColorMatrix in="SourceAlpha" type="matrix" values="0 0 0 0 0 0 0 0 0 0 0 0 0 0 0 0 0 0 127 0" result="hardAlpha"/>
<feOffset dy="4"/>
<feGaussianBlur stdDeviation="2"/>
<feComposite in2="hardAlpha" operator="arithmetic" k2="-1" k3="1"/>
<feColorMatrix type="matrix" values="0 0 0 0 0 0 0 0 0 0 0 0 0 0 0 0 0 0 0.25 0"/>
<feBlend mode="normal" in2="shape" result="effect1_innerShadow_1_15768"/>
</filter>
</defs>
</svg>
