<svg width="16" height="18" viewBox="0 0 16 18" fill="none" xmlns="http://www.w3.org/2000/svg">
<path d="M6.80281 1.20563L7.59558 0.290588C7.93126 -0.0968628 8.47405 -0.0968628 8.80616 0.290588L15.7482 8.29929C16.0839 8.68674 16.0839 9.31326 15.7482 9.69659L8.80616 17.7094C8.47048 18.0969 7.92769 18.0969 7.59558 17.7094L6.80281 16.7944C6.46356 16.4028 6.47071 15.7639 6.8171 15.3806L11.1202 10.6487H0.857047C0.3821 10.6487 0 10.2077 0 9.65949V8.34051C0 7.79231 0.3821 7.35127 0.857047 7.35127H11.1202L6.8171 2.61942C6.46714 2.23609 6.45999 1.59721 6.80281 1.20563Z" fill="#CC792D"/>
</svg>
