<svg width="20" height="25" viewBox="0 0 20 25" fill="none" xmlns="http://www.w3.org/2000/svg">
<path d="M17.8571 10.9375H16.7857V7.42188C16.7857 3.33008 13.7411 0 10 0C6.25893 0 3.21429 3.33008 3.21429 7.42188V10.9375H2.14286C0.959821 10.9375 0 11.9873 0 13.2812V22.6562C0 23.9502 0.959821 25 2.14286 25H17.8571C19.0402 25 20 23.9502 20 22.6562V13.2812C20 11.9873 19.0402 10.9375 17.8571 10.9375ZM13.2143 10.9375H6.78571V7.42188C6.78571 5.4834 8.22768 3.90625 10 3.90625C11.7723 3.90625 13.2143 5.4834 13.2143 7.42188V10.9375Z" fill="black"/>
</svg>
