<svg width="25" height="25" viewBox="0 0 25 25" fill="none" xmlns="http://www.w3.org/2000/svg">
<g filter="url(#filter0_i_1_15779)">
<path d="M12.1094 0C18.7988 0 24.2188 5.41992 24.2188 12.1094C24.2188 18.7988 18.7988 24.2188 12.1094 24.2188C5.41992 24.2188 0 18.7988 0 12.1094C0 5.41992 5.41992 0 12.1094 0ZM6.44531 14.2578H12.1094V17.7197C12.1094 18.2422 12.7441 18.5059 13.1104 18.1348L18.6914 12.5244C18.9209 12.2949 18.9209 11.9287 18.6914 11.6992L13.1104 6.08398C12.7393 5.71289 12.1094 5.97656 12.1094 6.49902V9.96094H6.44531C6.12305 9.96094 5.85938 10.2246 5.85938 10.5469V13.6719C5.85938 13.9941 6.12305 14.2578 6.44531 14.2578Z" fill="#CC792D"/>
</g>
<path d="M13.465 5.73151L13.4639 5.73043C12.7758 5.0423 11.6094 5.53402 11.6094 6.49902V9.46094H6.44531C5.8469 9.46094 5.35938 9.94847 5.35938 10.5469V13.6719C5.35938 14.2703 5.8469 14.7578 6.44531 14.7578H11.6094V17.7197C11.6094 18.682 12.7802 19.1797 13.4654 18.4868C13.4657 18.4865 13.466 18.4863 13.4662 18.486L19.045 12.878C19.045 12.8779 19.0451 12.8778 19.0452 12.8778C19.4695 12.4532 19.4696 11.7709 19.0455 11.3462C19.0453 11.346 19.0451 11.3458 19.045 11.3457L13.465 5.73151ZM12.1094 0.5C18.5227 0.5 23.7188 5.69606 23.7188 12.1094C23.7188 18.5227 18.5227 23.7188 12.1094 23.7188C5.69606 23.7188 0.5 18.5227 0.5 12.1094C0.5 5.69606 5.69606 0.5 12.1094 0.5Z" stroke="#CC792D"/>
<defs>
<filter id="filter0_i_1_15779" x="0" y="0" width="24.2188" height="28.2188" filterUnits="userSpaceOnUse" color-interpolation-filters="sRGB">
<feFlood flood-opacity="0" result="BackgroundImageFix"/>
<feBlend mode="normal" in="SourceGraphic" in2="BackgroundImageFix" result="shape"/>
<feColorMatrix in="SourceAlpha" type="matrix" values="0 0 0 0 0 0 0 0 0 0 0 0 0 0 0 0 0 0 127 0" result="hardAlpha"/>
<feOffset dy="4"/>
<feGaussianBlur stdDeviation="2"/>
<feComposite in2="hardAlpha" operator="arithmetic" k2="-1" k3="1"/>
<feColorMatrix type="matrix" values="0 0 0 0 0 0 0 0 0 0 0 0 0 0 0 0 0 0 0.25 0"/>
<feBlend mode="normal" in2="shape" result="effect1_innerShadow_1_15779"/>
</filter>
</defs>
</svg>
