<svg width="33" height="30" viewBox="0 0 33 30" fill="none" xmlns="http://www.w3.org/2000/svg">
<g filter="url(#filter0_d_1_15752)">
<path d="M25.1115 4.54418C21.7726 2.33802 17.3346 1.83585 13.648 2.50121C9.52344 -1.47709 4.90148 0.352773 4 0.878815C4 0.878815 7.17187 3.57413 6.65668 5.9348C2.90148 9.76293 4.68663 14.0251 6.65668 16.0377C7.17187 18.3983 4 21.0937 4 21.0937C4.8928 21.6214 9.50217 23.4457 13.648 19.4878C17.3264 20.1488 21.7643 19.6509 25.1115 17.4409C30.2878 14.1362 30.3047 7.86579 25.1115 4.54375V4.54418ZM16.7682 17.4196C15.4774 17.4233 14.1916 17.2574 12.944 16.9261L12.0859 17.7547C11.6093 18.2169 11.0756 18.6164 10.4978 18.9435C9.79681 19.2964 9.03526 19.5134 8.25347 19.5828C8.29688 19.5056 8.33507 19.4283 8.3737 19.3554C9.2322 17.7639 9.46369 16.3361 9.06814 15.072C7.65625 13.9604 6.8112 12.5398 6.8112 10.9865C6.8112 7.42743 11.2704 4.54418 16.7682 4.54418C22.2661 4.54418 26.7253 7.42743 26.7253 10.9865C26.7253 14.5455 22.2661 17.4196 16.7682 17.4196ZM11.9913 12.5186C11.5971 12.5241 11.2168 12.3732 10.9337 12.0989C10.6506 11.8246 10.4878 11.4492 10.4809 11.055C10.4505 9.08498 13.4249 9.04201 13.4549 11.0077V11.0299C13.4567 11.2238 13.4203 11.4162 13.3477 11.596C13.2751 11.7759 13.1678 11.9397 13.0319 12.078C12.8959 12.2164 12.7341 12.3266 12.5555 12.4023C12.377 12.478 12.1853 12.5179 11.9913 12.5194V12.5186ZM15.1931 11.055C15.1589 9.08498 18.1332 9.03767 18.1675 11.0034V11.0299C18.1845 12.9865 15.2274 13.0077 15.1931 11.055ZM21.4162 12.5186C21.022 12.5241 20.6416 12.3732 20.3585 12.0989C20.0753 11.8246 19.9123 11.4492 19.9054 11.055C19.8754 9.08498 22.8498 9.04201 22.8798 11.0077V11.0299C22.8822 11.224 22.8463 11.4166 22.7739 11.5968C22.7015 11.7769 22.5943 11.941 22.4582 12.0794C22.3221 12.2179 22.16 12.3281 21.9812 12.4036C21.8024 12.4791 21.6104 12.5185 21.4162 12.5194V12.5186Z" fill="#CC792D"/>
</g>
<defs>
<filter id="filter0_d_1_15752" x="0" y="0" width="33.0001" height="29.9738" filterUnits="userSpaceOnUse" color-interpolation-filters="sRGB">
<feFlood flood-opacity="0" result="BackgroundImageFix"/>
<feColorMatrix in="SourceAlpha" type="matrix" values="0 0 0 0 0 0 0 0 0 0 0 0 0 0 0 0 0 0 127 0" result="hardAlpha"/>
<feOffset dy="4"/>
<feGaussianBlur stdDeviation="2"/>
<feComposite in2="hardAlpha" operator="out"/>
<feColorMatrix type="matrix" values="0 0 0 0 0 0 0 0 0 0 0 0 0 0 0 0 0 0 0.25 0"/>
<feBlend mode="normal" in2="BackgroundImageFix" result="effect1_dropShadow_1_15752"/>
<feBlend mode="normal" in="SourceGraphic" in2="effect1_dropShadow_1_15752" result="shape"/>
</filter>
</defs>
</svg>
