<svg width="25" height="22" viewBox="0 0 25 22" fill="none" xmlns="http://www.w3.org/2000/svg">
<g filter="url(#filter0_i_1_15776)">
<path d="M21.1115 4.54418C17.7726 2.33802 13.3346 1.83585 9.648 2.50121C5.52344 -1.47709 0.901476 0.352773 0 0.878815C0 0.878815 3.17187 3.57413 2.65668 5.9348C-1.09852 9.76293 0.686632 14.0251 2.65668 16.0377C3.17187 18.3983 0 21.0937 0 21.0937C0.892795 21.6214 5.50217 23.4457 9.648 19.4878C13.3264 20.1488 17.7643 19.6509 21.1115 17.4409C26.2878 14.1362 26.3047 7.86579 21.1115 4.54375V4.54418ZM12.7682 17.4196C11.4774 17.4233 10.1916 17.2574 8.94401 16.9261L8.08594 17.7547C7.60931 18.2169 7.07563 18.6164 6.49783 18.9435C5.79681 19.2964 5.03526 19.5134 4.25347 19.5828C4.29688 19.5056 4.33507 19.4283 4.3737 19.3554C5.2322 17.7639 5.46369 16.3361 5.06814 15.072C3.65625 13.9604 2.8112 12.5398 2.8112 10.9865C2.8112 7.42743 7.2704 4.54418 12.7682 4.54418C18.2661 4.54418 22.7253 7.42743 22.7253 10.9865C22.7253 14.5455 18.2661 17.4196 12.7682 17.4196ZM7.99132 12.5186C7.59713 12.5241 7.21681 12.3732 6.9337 12.0989C6.65058 11.8246 6.48776 11.4492 6.4809 11.055C6.45052 9.08498 9.42491 9.04201 9.45486 11.0077V11.0299C9.45669 11.2238 9.42028 11.4162 9.3477 11.596C9.27512 11.7759 9.16779 11.9397 9.03187 12.078C8.89594 12.2164 8.73408 12.3266 8.55553 12.4023C8.37698 12.478 8.18526 12.5179 7.99132 12.5194V12.5186ZM11.1931 11.055C11.1589 9.08498 14.1332 9.03767 14.1675 11.0034V11.0299C14.1845 12.9865 11.2274 13.0077 11.1931 11.055ZM17.4162 12.5186C17.022 12.5241 16.6416 12.3732 16.3585 12.0989C16.0753 11.8246 15.9123 11.4492 15.9054 11.055C15.8754 9.08498 18.8498 9.04201 18.8798 11.0077V11.0299C18.8822 11.224 18.8463 11.4166 18.7739 11.5968C18.7015 11.7769 18.5943 11.941 18.4582 12.0794C18.3221 12.2179 18.16 12.3281 17.9812 12.4036C17.8024 12.4791 17.6104 12.5185 17.4162 12.5194V12.5186Z" fill="#CC792D"/>
</g>
<path d="M12.769 17.9196C15.5993 17.9195 18.1855 17.1806 20.0796 15.9577C21.969 14.7379 23.2253 12.9925 23.2253 10.9865C23.2253 8.98064 21.9692 7.23297 20.08 6.01086C18.1858 4.78553 15.5991 4.04418 12.7682 4.04418C9.93734 4.04418 7.35068 4.78553 5.45646 6.01086C3.56721 7.23297 2.3112 8.98064 2.3112 10.9865C2.3112 12.6855 3.21066 14.1993 4.63209 15.3631C4.9166 16.4261 4.71709 17.6657 3.93364 19.118L3.93363 19.118L3.93187 19.1213C3.91363 19.1557 3.89854 19.185 3.88465 19.2119C3.86197 19.2558 3.84246 19.2936 3.81755 19.3379L3.35304 20.1647L4.2977 20.0808C5.14241 20.0058 5.96525 19.7714 6.72269 19.3901L6.73355 19.3846L6.74414 19.3786C7.35886 19.0306 7.92666 18.6056 8.43376 18.1139C8.43385 18.1138 8.43394 18.1137 8.43403 18.1136L9.09059 17.4796C10.2939 17.7753 11.5292 17.9231 12.769 17.9196ZM12.769 17.9196C12.7687 17.9196 12.7685 17.9196 12.7682 17.9196V17.4196L12.7697 17.9196C12.7694 17.9196 12.7692 17.9196 12.769 17.9196ZM20.8359 4.96134L21.1146 5.14547C23.4014 6.7147 24.5019 8.8773 24.5001 10.9984C24.4981 13.2023 23.306 15.4467 20.8425 17.0194L20.8425 17.0194L20.836 17.0236C17.621 19.1464 13.3213 19.6399 9.73644 18.9956L9.48645 18.9507L9.30274 19.1261C7.33592 21.0038 5.279 21.4984 3.61177 21.4729C2.46253 21.4553 1.497 21.1899 0.878385 20.9517C1.17405 20.6533 1.55447 20.2391 1.92116 19.7514C2.65919 18.7699 3.45358 17.3442 3.14519 15.9311L3.11454 15.7906L3.01399 15.6879C2.09014 14.7441 1.21305 13.2724 1.00589 11.6054C0.801736 9.96255 1.24176 8.09121 3.01362 6.28494L3.11448 6.18213L3.14519 6.04141C3.45358 4.62829 2.65919 3.20254 1.92116 2.22106C1.55508 1.73421 1.17532 1.32058 0.879863 1.02225C1.50225 0.783495 2.47161 0.517566 3.62261 0.500832C5.29098 0.476577 7.34493 0.974495 9.30089 2.86109L9.48503 3.0387L9.73681 2.99326C13.3296 2.34483 17.6291 2.84254 20.8359 4.96134ZM8.36027 11.942C8.25684 11.9859 8.14673 12.0115 8.0348 12.0179L7.98425 12.0186C7.72238 12.0223 7.46972 11.9221 7.28163 11.7398C7.09363 11.5577 6.98548 11.3084 6.98083 11.0467C6.97551 10.6914 7.10105 10.4592 7.26512 10.3099C7.43864 10.1519 7.68659 10.0594 7.95285 10.0554C8.21912 10.0514 8.46994 10.1363 8.64834 10.2888C8.81656 10.4326 8.94864 10.6596 8.95486 11.0118V11.0299H8.95484L8.95488 11.0346C8.95609 11.1628 8.93202 11.29 8.88403 11.4089C8.83604 11.5278 8.76508 11.6361 8.67521 11.7276C8.58534 11.8191 8.47832 11.8919 8.36027 11.942ZM13.6675 11.0299H13.6675L13.6676 11.0342C13.6706 11.3863 13.5447 11.6149 13.3812 11.7614C13.2082 11.9163 12.9613 12.0064 12.6956 12.0084C12.4301 12.0105 12.1793 11.9243 12.0005 11.7707C11.8311 11.6252 11.6992 11.3973 11.6931 11.0463C11.6869 10.6906 11.812 10.4582 11.9758 10.3086C12.1489 10.1505 12.3966 10.0577 12.6629 10.0532C12.9292 10.0488 13.1804 10.1333 13.3592 10.2857C13.5279 10.4294 13.6604 10.6561 13.6675 11.0081V11.0299ZM17.4652 12.0178L17.4092 12.0186C17.1472 12.0223 16.8945 11.9221 16.7063 11.7398C16.5182 11.5576 16.41 11.3083 16.4053 11.0464C16.4001 10.6913 16.5257 10.4592 16.6898 10.3099C16.8634 10.1519 17.1114 10.0594 17.3777 10.0554C17.644 10.0514 17.8948 10.1363 18.0733 10.2888C18.2415 10.4327 18.3736 10.6596 18.3798 11.0119V11.0299H18.3797L18.3798 11.0362C18.3814 11.1643 18.3577 11.2915 18.3099 11.4104C18.2622 11.5293 18.1913 11.6376 18.1015 11.729C18.0117 11.8204 17.9047 11.8931 17.7867 11.943C17.6845 11.9861 17.5757 12.0114 17.4652 12.0178Z" stroke="#CC792D"/>
<defs>
<filter id="filter0_i_1_15776" x="0" y="0" width="25.0001" height="25.9738" filterUnits="userSpaceOnUse" color-interpolation-filters="sRGB">
<feFlood flood-opacity="0" result="BackgroundImageFix"/>
<feBlend mode="normal" in="SourceGraphic" in2="BackgroundImageFix" result="shape"/>
<feColorMatrix in="SourceAlpha" type="matrix" values="0 0 0 0 0 0 0 0 0 0 0 0 0 0 0 0 0 0 127 0" result="hardAlpha"/>
<feOffset dy="4"/>
<feGaussianBlur stdDeviation="2"/>
<feComposite in2="hardAlpha" operator="arithmetic" k2="-1" k3="1"/>
<feColorMatrix type="matrix" values="0 0 0 0 0 0 0 0 0 0 0 0 0 0 0 0 0 0 0.25 0"/>
<feBlend mode="normal" in2="shape" result="effect1_innerShadow_1_15776"/>
</filter>
</defs>
</svg>
