<svg width="22" height="19" viewBox="0 0 22 19" fill="none" xmlns="http://www.w3.org/2000/svg">
<g filter="url(#filter0_i_1_15585)">
<path d="M17.3871 2.03948C20.1815 3.73591 22 6.51051 22 9.65078C22 14.8079 17.0855 18.9887 11.0222 19C4.96775 19.0113 0.00887906 14.8155 8.09548e-06 9.66586C-0.00442739 6.52559 1.81412 3.74345 4.60404 2.04325C5.12299 1.73036 5.84597 1.8623 6.15646 2.33353L6.85726 3.39285C7.11896 3.78869 6.99476 4.29007 6.56452 4.5615C4.7238 5.72261 3.54839 7.56229 3.54839 9.64701C3.54396 13.1266 6.85283 15.9841 11 15.9841C15.0629 15.9841 18.4782 13.1869 18.4516 9.60931C18.4383 7.65654 17.3561 5.77162 15.4311 4.55773C15.0008 4.2863 14.8811 3.78492 15.1427 3.39285L15.8436 2.33353C16.154 1.86607 16.8726 1.72659 17.3871 2.03948ZM12.7742 9.95237V0.904761C12.7742 0.403372 12.2996 0 11.7097 0H10.2903C9.70041 0 9.22581 0.403372 9.22581 0.904761V9.95237C9.22581 10.4538 9.70041 10.8571 10.2903 10.8571H11.7097C12.2996 10.8571 12.7742 10.4538 12.7742 9.95237Z" fill="#CC792D"/>
</g>
<defs>
<filter id="filter0_i_1_15585" x="0" y="0" width="22" height="23" filterUnits="userSpaceOnUse" color-interpolation-filters="sRGB">
<feFlood flood-opacity="0" result="BackgroundImageFix"/>
<feBlend mode="normal" in="SourceGraphic" in2="BackgroundImageFix" result="shape"/>
<feColorMatrix in="SourceAlpha" type="matrix" values="0 0 0 0 0 0 0 0 0 0 0 0 0 0 0 0 0 0 127 0" result="hardAlpha"/>
<feOffset dy="4"/>
<feGaussianBlur stdDeviation="2"/>
<feComposite in2="hardAlpha" operator="arithmetic" k2="-1" k3="1"/>
<feColorMatrix type="matrix" values="0 0 0 0 0 0 0 0 0 0 0 0 0 0 0 0 0 0 0.25 0"/>
<feBlend mode="normal" in2="shape" result="effect1_innerShadow_1_15585"/>
</filter>
</defs>
</svg>
