<svg width="16" height="20" viewBox="0 0 16 20" fill="none" xmlns="http://www.w3.org/2000/svg">
<g filter="url(#filter0_i_1_16089)">
<path d="M8 20C9.26142 20 10.2846 18.8809 10.2846 17.5H5.71536C5.71536 18.8809 6.73857 20 8 20ZM15.6925 14.152C15.0025 13.341 13.7114 12.1211 13.7114 8.125C13.7114 5.08984 11.7657 2.66016 9.14214 2.06406V1.25C9.14214 0.559766 8.63071 0 8 0C7.36929 0 6.85786 0.559766 6.85786 1.25V2.06406C4.2343 2.66016 2.28859 5.08984 2.28859 8.125C2.28859 12.1211 0.997522 13.341 0.307524 14.152C0.0932387 14.4039 -0.00176102 14.7051 2.46924e-05 15C0.00395325 15.6406 0.463595 16.25 1.14645 16.25H14.8536C15.5364 16.25 15.9964 15.6406 16 15C16.0018 14.7051 15.9068 14.4035 15.6925 14.152Z" fill="#FF0000"/>
</g>
<path d="M15.3118 14.4762L15.3117 14.476C15.2714 14.4286 15.2279 14.3787 15.1818 14.3258C14.8484 13.9431 14.3776 13.4026 13.9875 12.5387C13.5432 11.5546 13.2114 10.1775 13.2114 8.125C13.2114 5.30673 11.4115 3.09242 9.03136 2.55164L8.64214 2.4632V2.06406V1.25C8.64214 0.792472 8.31305 0.5 8 0.5C7.68695 0.5 7.35786 0.792472 7.35786 1.25V2.06406V2.4632L6.96864 2.55164C4.58851 3.09242 2.78859 5.30673 2.78859 8.125C2.78859 10.1775 2.45684 11.5546 2.01251 12.5387C1.62242 13.4026 1.1516 13.9431 0.818214 14.3258C0.772097 14.3787 0.72861 14.4286 0.688331 14.476C0.557328 14.63 0.498908 14.8128 0.500015 14.9969L15.3118 14.4762ZM15.3118 14.4762C15.4425 14.6296 15.5011 14.8125 15.5 14.997L15.5 14.9972M15.3118 14.4762L15.5 14.9972M15.5 14.9972C15.4975 15.4365 15.193 15.75 14.8536 15.75H1.14645C0.807214 15.75 0.50273 15.4368 0.500016 14.997L15.5 14.9972ZM9.72919 18C9.52723 18.8869 8.80074 19.5 8 19.5C7.19926 19.5 6.47277 18.8869 6.27081 18H9.72919Z" stroke="#FF0000"/>
<defs>
<filter id="filter0_i_1_16089" x="0" y="0" width="16" height="24" filterUnits="userSpaceOnUse" color-interpolation-filters="sRGB">
<feFlood flood-opacity="0" result="BackgroundImageFix"/>
<feBlend mode="normal" in="SourceGraphic" in2="BackgroundImageFix" result="shape"/>
<feColorMatrix in="SourceAlpha" type="matrix" values="0 0 0 0 0 0 0 0 0 0 0 0 0 0 0 0 0 0 127 0" result="hardAlpha"/>
<feOffset dy="4"/>
<feGaussianBlur stdDeviation="2"/>
<feComposite in2="hardAlpha" operator="arithmetic" k2="-1" k3="1"/>
<feColorMatrix type="matrix" values="0 0 0 0 0 0 0 0 0 0 0 0 0 0 0 0 0 0 0.25 0"/>
<feBlend mode="normal" in2="shape" result="effect1_innerShadow_1_16089"/>
</filter>
</defs>
</svg>
