<svg width="33" height="33" viewBox="0 0 33 33" fill="none" xmlns="http://www.w3.org/2000/svg">
<g filter="url(#filter0_d_1_15640)">
<path d="M16.1094 24.2188C9.41992 24.2188 4 18.7988 4 12.1094C4 5.41992 9.41992 0 16.1094 0C22.7988 0 28.2188 5.41992 28.2188 12.1094C28.2188 18.7988 22.7988 24.2188 16.1094 24.2188ZM21.7734 9.96094H16.1094V6.49902C16.1094 5.97656 15.4746 5.71289 15.1084 6.08398L9.52734 11.6943C9.29785 11.9238 9.29785 12.29 9.52734 12.5195L15.1084 18.1299C15.4795 18.501 16.1094 18.2373 16.1094 17.7148V14.2578H21.7734C22.0957 14.2578 22.3594 13.9941 22.3594 13.6719V10.5469C22.3594 10.2246 22.0957 9.96094 21.7734 9.96094Z" fill="#CC792D"/>
</g>
<defs>
<filter id="filter0_d_1_15640" x="0" y="0" width="32.2188" height="32.2188" filterUnits="userSpaceOnUse" color-interpolation-filters="sRGB">
<feFlood flood-opacity="0" result="BackgroundImageFix"/>
<feColorMatrix in="SourceAlpha" type="matrix" values="0 0 0 0 0 0 0 0 0 0 0 0 0 0 0 0 0 0 127 0" result="hardAlpha"/>
<feOffset dy="4"/>
<feGaussianBlur stdDeviation="2"/>
<feComposite in2="hardAlpha" operator="out"/>
<feColorMatrix type="matrix" values="0 0 0 0 0 0 0 0 0 0 0 0 0 0 0 0 0 0 0.25 0"/>
<feBlend mode="normal" in2="BackgroundImageFix" result="effect1_dropShadow_1_15640"/>
<feBlend mode="normal" in="SourceGraphic" in2="effect1_dropShadow_1_15640" result="shape"/>
</filter>
</defs>
</svg>
